<svg xmlns="http://www.w3.org/2000/svg" width="560" height="360" viewBox="0 0 560 360" fill="none"><defs><radialGradient id="halo"><stop stop-color="#ecaa68" stop-opacity=".14"/><stop offset="1" stop-color="#ecaa68" stop-opacity="0"/></radialGradient></defs><ellipse cx="280" cy="180" rx="270" ry="175" fill="url(#halo)"/><rect x="87" y="79" width="113" height="214" rx="20" fill="#191715" stroke="#c4b5a0" stroke-width="2"/><path d="M127 95h33m-27 181h23" stroke="#c4b5a0" stroke-width="3" stroke-linecap="round"/><rect x="105" y="120" width="76" height="131" rx="7" fill="#211d18"/><path d="M122 145h42m-42 19h30m-30 19h42m-42 19h24" stroke="#ecaa68" stroke-width="3" stroke-opacity=".65" stroke-linecap="round"/><path d="M218 186h97" stroke="#c4b5a0" stroke-width="2" stroke-dasharray="2 10"/><path d="m306 179 9 7-9 7" stroke="#c4b5a0" stroke-width="2" stroke-linecap="round"/><path d="m404 80 78 29v73c0 57-39 90-78 105-39-15-78-48-78-105v-73Z" fill="#18201d" stroke="#7fc0a8" stroke-width="2"/><rect x="375" y="163" width="58" height="48" rx="9" fill="#24382e" stroke="#7fc0a8" stroke-width="2"/><path d="M385 162v-17a19 19 0 0 1 38 0v17" stroke="#7fc0a8" stroke-width="3"/><circle cx="404" cy="185" r="4" fill="#7fc0a8"/><path d="M404 189v8" stroke="#7fc0a8" stroke-width="2"/></svg>