<svg xmlns="http://www.w3.org/2000/svg" width="560" height="360" viewBox="0 0 560 360" fill="none"><defs><radialGradient id="halo"><stop stop-color="#ecaa68" stop-opacity=".14"/><stop offset="1" stop-color="#ecaa68" stop-opacity="0"/></radialGradient></defs><ellipse cx="280" cy="180" rx="270" ry="175" fill="url(#halo)"/><circle cx="354" cy="95" r="38" fill="#ecaa68" opacity=".85"/><path d="M354 38v-9m0 132v-9m57-57h9m-123 0h-9m107-41 7-7m-96 96 7-7m82 0 7 7" stroke="#ecaa68" stroke-width="2" stroke-linecap="round"/><path d="M169 176h167c28 0 40-17 40-38s-17-37-39-37c-8-31-31-48-61-45-34 3-52 25-54 54-24-9-47 2-53 23-26-6-44 4-44 20s17 23 44 23Z" fill="#191c1d" stroke="#a8c4d4" stroke-width="2"/><path d="M73 284h414M73 250h414M73 216h414" stroke="#a8c4d4" stroke-opacity=".12"/><path d="M73 255C125 255 120 211 172 219S239 284 292 260 343 215 395 226 447 246 487 220" stroke="#a8c4d4" stroke-width="3" stroke-linecap="round"/><circle cx="292" cy="260" r="6" fill="#ecaa68"/><path d="M292 199v90" stroke="#ecaa68" stroke-opacity=".4" stroke-dasharray="3 7"/><circle cx="436" cy="158" r="45" fill="#191715" stroke="#c4b5a0" stroke-width="1.5"/><path d="M406 166a30 30 0 1 1 60 0" stroke="#a8c4d4" stroke-width="2"/><path d="m436 158 17-19" stroke="#ecaa68" stroke-width="3" stroke-linecap="round"/><circle cx="436" cy="158" r="4" fill="#ecaa68"/><circle cx="476" cy="198" r="22" fill="#201c17" stroke="#ecaa68" stroke-width="1.5"/><path d="M465 204h22l-3-5v-6a8 8 0 0 0-16 0v6Zm7 4a4 4 0 0 0 8 0" stroke="#ecaa68" stroke-width="1.5" stroke-linejoin="round"/></svg>